<svg width="20" height="9" viewBox="0 0 20 9" fill="none" xmlns="http://www.w3.org/2000/svg">
<path d="M9.37695 0.631006L0.237681 7.90474C0.0851105 8.0261 -1.13778e-06 8.18735 -1.16237e-06 8.35502C-1.18696e-06 8.5227 0.0851104 8.68394 0.237681 8.80531L0.248007 8.81314C0.321971 8.87218 0.410999 8.91919 0.509677 8.95131C0.608355 8.98344 0.714621 9.00001 0.822008 9.00001C0.929396 9.00001 1.03566 8.98344 1.13434 8.95131C1.23302 8.91919 1.32205 8.87218 1.39601 8.81314L10.0017 1.96359L18.604 8.81314C18.678 8.87218 18.767 8.91919 18.8657 8.95131C18.9643 8.98344 19.0706 9.00001 19.178 9.00001C19.2854 9.00001 19.3916 8.98344 19.4903 8.95131C19.589 8.91919 19.678 8.87218 19.752 8.81314L19.7623 8.80531C19.9149 8.68394 20 8.5227 20 8.35502C20 8.18735 19.9149 8.0261 19.7623 7.90474L10.6231 0.631006C10.5427 0.567037 10.446 0.51611 10.3389 0.481313C10.2318 0.446516 10.1165 0.428574 10 0.428574C9.88348 0.428574 9.76818 0.446516 9.66108 0.481313C9.55398 0.51611 9.45732 0.567037 9.37695 0.631006Z" fill="black"/>
</svg>
