<svg width="20" height="9" viewBox="0 0 20 9" fill="none" xmlns="http://www.w3.org/2000/svg">
<path d="M10.6231 8.79757L19.7623 1.52384C19.9149 1.40247 20 1.24123 20 1.07355C20 0.905875 19.9149 0.744633 19.7623 0.623267L19.752 0.615436C19.678 0.556396 19.589 0.509384 19.4903 0.477259C19.3916 0.445134 19.2854 0.428567 19.178 0.428567C19.0706 0.428567 18.9643 0.445134 18.8657 0.477259C18.767 0.509384 18.678 0.556396 18.604 0.615436L9.99828 7.46499L1.39601 0.615439C1.32205 0.556399 1.23302 0.509388 1.13434 0.477263C1.03566 0.445137 0.929398 0.428571 0.822011 0.428571C0.714623 0.428571 0.608358 0.445137 0.50968 0.477263C0.411001 0.509388 0.321972 0.5564 0.248009 0.615439L0.237682 0.623271C0.0851119 0.744637 -8.06901e-07 0.905879 -8.00063e-07 1.07356C-7.93226e-07 1.24123 0.085112 1.40247 0.237682 1.52384L9.37695 8.79757C9.45732 8.86154 9.55399 8.91247 9.66108 8.94726C9.76818 8.98206 9.88349 9 10 9C10.1165 9 10.2318 8.98206 10.3389 8.94726C10.446 8.91247 10.5427 8.86154 10.6231 8.79757Z" fill="black"/>
</svg>
