<svg width="50" height="50" viewBox="0 0 50 50" fill="none" xmlns="http://www.w3.org/2000/svg">
<circle cx="25" cy="25" r="25" fill="#2196F3"/>
<path fill-rule="evenodd" clip-rule="evenodd" d="M25 18.0821C22.001 14.7991 16.9896 13.7845 13.2321 16.7908C9.47447 19.7971 8.94545 24.8234 11.8963 28.379C14.3497 31.3351 21.7747 37.57 24.2082 39.5881C24.4803 39.8138 24.6165 39.9267 24.7753 39.971C24.9138 40.0097 25.0655 40.0097 25.2042 39.971C25.363 39.9267 25.499 39.8138 25.7713 39.5881C28.2048 37.57 35.6297 31.3351 38.0832 28.379C41.034 24.8234 40.5695 19.7654 36.7474 16.7908C32.9252 13.8161 27.999 14.7991 25 18.0821Z" fill="white"/>
</svg>
