<svg width="400" height="22" viewBox="0 0 400 22" fill="none" xmlns="http://www.w3.org/2000/svg">
<line x1="23.5" y1="10.5" x2="173.5" y2="10.5" stroke="#939393"/>
<path d="M186.84 15.7756L191.57 8.18182H193.309V18H191.801V10.4062L187.096 18H185.332V8.18182H186.84V15.7756ZM195.203 18V16.5938H195.561C195.855 16.5938 196.1 16.5362 196.296 16.4212C196.492 16.3018 196.65 16.0952 196.769 15.8011C196.892 15.5028 196.986 15.0895 197.05 14.5611C197.118 14.0284 197.167 13.3509 197.197 12.5284L197.376 8.18182H203.922V18H202.413V9.58807H198.808L198.654 13.0909C198.62 13.8963 198.548 14.6058 198.437 15.2195C198.331 15.8288 198.167 16.3402 197.945 16.7536C197.728 17.1669 197.438 17.478 197.076 17.6868C196.713 17.8956 196.26 18 195.714 18H195.203ZM208.198 15.7756L212.928 8.18182H214.667V18H213.158V10.4062L208.453 18H206.689V8.18182H208.198V15.7756Z" fill="#939393"/>
<line x1="226.5" y1="10.5" x2="376.5" y2="10.5" stroke="#939393"/>
</svg>
