<svg width="301" height="40" viewBox="0 0 301 40" fill="none" xmlns="http://www.w3.org/2000/svg">
<path d="M10.8409 31H0.528409V1.90909H10.9261C13.8523 1.90909 16.3712 2.49148 18.483 3.65625C20.5947 4.81155 22.2188 6.47348 23.3551 8.64205C24.5009 10.8106 25.0739 13.4053 25.0739 16.4261C25.0739 19.4564 24.5009 22.0606 23.3551 24.2386C22.2188 26.4167 20.5852 28.0881 18.4545 29.2528C16.3333 30.4176 13.7955 31 10.8409 31ZM6.67898 25.7301H10.5852C12.4034 25.7301 13.9328 25.4081 15.1733 24.7642C16.4233 24.1108 17.3608 23.1023 17.9858 21.7386C18.6203 20.3655 18.9375 18.5947 18.9375 16.4261C18.9375 14.2765 18.6203 12.5199 17.9858 11.1562C17.3608 9.79261 16.428 8.78883 15.1875 8.14489C13.947 7.50095 12.4176 7.17898 10.5994 7.17898H6.67898V25.7301ZM29.5163 31V9.18182H35.5675V31H29.5163ZM32.5561 6.36932C31.6565 6.36932 30.8847 6.07102 30.2408 5.47443C29.6063 4.86837 29.2891 4.14394 29.2891 3.30114C29.2891 2.4678 29.6063 1.75284 30.2408 1.15625C30.8847 0.550188 31.6565 0.247158 32.5561 0.247158C33.4557 0.247158 34.2228 0.550188 34.8572 1.15625C35.5012 1.75284 35.8232 2.4678 35.8232 3.30114C35.8232 4.14394 35.5012 4.86837 34.8572 5.47443C34.2228 6.07102 33.4557 6.36932 32.5561 6.36932ZM50.2443 39.6364C48.2841 39.6364 46.6032 39.3665 45.2017 38.8267C43.8097 38.2964 42.7017 37.572 41.8778 36.6534C41.054 35.7348 40.5189 34.7027 40.2727 33.5568L45.8693 32.804C46.0398 33.2396 46.3097 33.6468 46.679 34.0256C47.0483 34.4044 47.536 34.7074 48.142 34.9347C48.7576 35.1714 49.5057 35.2898 50.3864 35.2898C51.7027 35.2898 52.7869 34.9678 53.6392 34.3239C54.5009 33.6894 54.9318 32.6241 54.9318 31.1278V27.1364H54.6761C54.411 27.7424 54.0133 28.3153 53.483 28.8551C52.9527 29.3949 52.2708 29.8352 51.4375 30.1761C50.6042 30.517 49.6098 30.6875 48.4545 30.6875C46.8163 30.6875 45.3248 30.3087 43.9801 29.5511C42.6449 28.7841 41.5795 27.6146 40.7841 26.0426C39.9981 24.4612 39.6051 22.4631 39.6051 20.0483C39.6051 17.5767 40.0076 15.5123 40.8125 13.8551C41.6174 12.1979 42.6875 10.9574 44.0227 10.1335C45.3674 9.30966 46.84 8.89773 48.4403 8.89773C49.6619 8.89773 50.6847 9.10606 51.5085 9.52273C52.3324 9.92992 52.9953 10.4413 53.4972 11.0568C54.0085 11.6629 54.4015 12.2595 54.6761 12.8466H54.9034V9.18182H60.9119V31.2131C60.9119 33.0691 60.4574 34.6222 59.5483 35.8722C58.6392 37.1222 57.3797 38.0597 55.7699 38.6847C54.1695 39.3191 52.3277 39.6364 50.2443 39.6364ZM50.3722 26.142C51.3475 26.142 52.1714 25.9006 52.8438 25.4176C53.5256 24.9252 54.0464 24.2244 54.4062 23.3153C54.7756 22.3968 54.9602 21.2983 54.9602 20.0199C54.9602 18.7415 54.7803 17.6335 54.4205 16.696C54.0606 15.7491 53.5398 15.0152 52.858 14.4943C52.1761 13.9735 51.3475 13.7131 50.3722 13.7131C49.3778 13.7131 48.5398 13.983 47.858 14.5227C47.1761 15.053 46.66 15.7917 46.3097 16.7386C45.9593 17.6856 45.7841 18.7794 45.7841 20.0199C45.7841 21.2794 45.9593 22.3684 46.3097 23.2869C46.6695 24.196 47.1856 24.9015 47.858 25.4034C48.5398 25.8958 49.3778 26.142 50.3722 26.142ZM65.7273 31V9.18182H71.7784V31H65.7273ZM68.767 6.36932C67.8674 6.36932 67.0956 6.07102 66.4517 5.47443C65.8172 4.86837 65.5 4.14394 65.5 3.30114C65.5 2.4678 65.8172 1.75284 66.4517 1.15625C67.0956 0.550188 67.8674 0.247158 68.767 0.247158C69.6667 0.247158 70.4337 0.550188 71.0682 1.15625C71.7121 1.75284 72.0341 2.4678 72.0341 3.30114C72.0341 4.14394 71.7121 4.86837 71.0682 5.47443C70.4337 6.07102 69.6667 6.36932 68.767 6.36932ZM88.2308 9.18182V13.7273H75.0916V9.18182H88.2308ZM78.0746 3.95455H84.1257V24.2955C84.1257 24.8542 84.2109 25.2898 84.3814 25.6023C84.5518 25.9053 84.7886 26.1184 85.0916 26.2415C85.4041 26.3646 85.764 26.4261 86.1712 26.4261C86.4553 26.4261 86.7393 26.4025 87.0234 26.3551C87.3075 26.2983 87.5253 26.2557 87.6768 26.2273L88.6286 30.7301C88.3255 30.8248 87.8994 30.9337 87.3501 31.0568C86.8009 31.1894 86.1333 31.2699 85.3473 31.2983C83.889 31.3551 82.6106 31.161 81.5121 30.7159C80.4231 30.2708 79.5755 29.5795 78.9695 28.642C78.3634 27.7045 78.0651 26.5208 78.0746 25.0909V3.95455ZM98.3942 31.4119C97.0021 31.4119 95.7616 31.1705 94.6726 30.6875C93.5836 30.1951 92.7218 29.4706 92.0874 28.5142C91.4624 27.5483 91.1499 26.3456 91.1499 24.9062C91.1499 23.6941 91.3724 22.6761 91.8175 21.8523C92.2625 21.0284 92.8686 20.3655 93.6357 19.8636C94.4027 19.3617 95.2739 18.983 96.2493 18.7273C97.2341 18.4716 98.2663 18.2917 99.3459 18.1875C100.615 18.0549 101.638 17.9318 102.414 17.8182C103.191 17.6951 103.754 17.5152 104.104 17.2784C104.455 17.0417 104.63 16.6913 104.63 16.2273V16.142C104.63 15.2424 104.346 14.5464 103.778 14.054C103.219 13.5616 102.424 13.3153 101.391 13.3153C100.302 13.3153 99.4358 13.5568 98.7919 14.0398C98.148 14.5133 97.7218 15.1098 97.5135 15.8295L91.9169 15.375C92.201 14.0492 92.7597 12.9034 93.593 11.9375C94.4264 10.9621 95.5012 10.214 96.8175 9.69318C98.1432 9.16288 99.6773 8.89773 101.42 8.89773C102.632 8.89773 103.792 9.03977 104.9 9.32386C106.017 9.60795 107.007 10.0483 107.869 10.6449C108.74 11.2415 109.426 12.0085 109.928 12.946C110.43 13.8741 110.681 14.9867 110.681 16.2841V31H104.942V27.9744H104.772C104.422 28.6562 103.953 29.2576 103.366 29.7784C102.779 30.2898 102.073 30.6922 101.249 30.9858C100.425 31.2699 99.4737 31.4119 98.3942 31.4119ZM100.127 27.2358C101.017 27.2358 101.803 27.0606 102.485 26.7102C103.167 26.3504 103.702 25.8674 104.09 25.2614C104.478 24.6553 104.673 23.9687 104.673 23.2017V20.8864C104.483 21.0095 104.223 21.1231 103.891 21.2273C103.569 21.322 103.205 21.4119 102.798 21.4972C102.39 21.5729 101.983 21.6439 101.576 21.7102C101.169 21.767 100.799 21.8191 100.468 21.8665C99.7578 21.9706 99.1375 22.1364 98.6072 22.3636C98.0769 22.5909 97.665 22.8987 97.3714 23.2869C97.0779 23.6657 96.9311 24.1392 96.9311 24.7074C96.9311 25.5312 97.2294 26.161 97.826 26.5966C98.4321 27.0227 99.1991 27.2358 100.127 27.2358ZM121.427 1.90909V31H115.376V1.90909H121.427ZM135.646 31V1.90909H147.123C149.329 1.90909 151.209 2.33049 152.762 3.1733C154.315 4.00663 155.499 5.16667 156.313 6.65341C157.137 8.13068 157.549 9.83523 157.549 11.767C157.549 13.6989 157.132 15.4034 156.299 16.8807C155.466 18.358 154.258 19.5085 152.677 20.3324C151.105 21.1562 149.201 21.5682 146.967 21.5682H139.651V16.6392H145.972C147.156 16.6392 148.131 16.4356 148.898 16.0284C149.675 15.6117 150.253 15.0388 150.631 14.3097C151.02 13.571 151.214 12.7235 151.214 11.767C151.214 10.8011 151.02 9.95833 150.631 9.23864C150.253 8.50947 149.675 7.94602 148.898 7.5483C148.122 7.1411 147.137 6.9375 145.944 6.9375H141.796V31H135.646ZM170.937 31.4261C168.73 31.4261 166.822 30.9574 165.212 30.0199C163.612 29.0729 162.376 27.7566 161.505 26.071C160.634 24.3759 160.198 22.411 160.198 20.1761C160.198 17.9223 160.634 15.9527 161.505 14.267C162.376 12.572 163.612 11.2557 165.212 10.3182C166.822 9.37121 168.73 8.89773 170.937 8.89773C173.143 8.89773 175.047 9.37121 176.647 10.3182C178.257 11.2557 179.497 12.572 180.369 14.267C181.24 15.9527 181.675 17.9223 181.675 20.1761C181.675 22.411 181.24 24.3759 180.369 26.071C179.497 27.7566 178.257 29.0729 176.647 30.0199C175.047 30.9574 173.143 31.4261 170.937 31.4261ZM170.965 26.7386C171.969 26.7386 172.807 26.4545 173.479 25.8864C174.152 25.3087 174.658 24.5227 174.999 23.5284C175.35 22.5341 175.525 21.4025 175.525 20.1335C175.525 18.8646 175.35 17.733 174.999 16.7386C174.658 15.7443 174.152 14.9583 173.479 14.3807C172.807 13.803 171.969 13.5142 170.965 13.5142C169.952 13.5142 169.1 13.803 168.408 14.3807C167.727 14.9583 167.21 15.7443 166.86 16.7386C166.519 17.733 166.349 18.8646 166.349 20.1335C166.349 21.4025 166.519 22.5341 166.86 23.5284C167.21 24.5227 167.727 25.3087 168.408 25.8864C169.1 26.4545 169.952 26.7386 170.965 26.7386ZM185.61 31V9.18182H191.477V12.9886H191.704C192.102 11.6345 192.769 10.6117 193.707 9.92045C194.644 9.2197 195.724 8.86932 196.945 8.86932C197.248 8.86932 197.575 8.88826 197.925 8.92614C198.276 8.96402 198.584 9.0161 198.849 9.08239V14.4517C198.565 14.3665 198.172 14.2907 197.67 14.2244C197.168 14.1581 196.709 14.125 196.292 14.125C195.402 14.125 194.606 14.3191 193.906 14.7074C193.214 15.0862 192.665 15.6165 192.258 16.2983C191.86 16.9801 191.661 17.7661 191.661 18.6562V31H185.61ZM214.676 9.18182V13.7273H201.537V9.18182H214.676ZM204.52 3.95455H210.571V24.2955C210.571 24.8542 210.656 25.2898 210.827 25.6023C210.997 25.9053 211.234 26.1184 211.537 26.2415C211.849 26.3646 212.209 26.4261 212.616 26.4261C212.901 26.4261 213.185 26.4025 213.469 26.3551C213.753 26.2983 213.971 26.2557 214.122 26.2273L215.074 30.7301C214.771 30.8248 214.345 30.9337 213.795 31.0568C213.246 31.1894 212.579 31.2699 211.793 31.2983C210.334 31.3551 209.056 31.161 207.957 30.7159C206.868 30.2708 206.021 29.5795 205.415 28.642C204.809 27.7045 204.51 26.5208 204.52 25.0909V3.95455ZM230.351 9.18182V13.7273H216.885V9.18182H230.351ZM219.967 31V7.60511C219.967 6.02367 220.275 4.71212 220.891 3.67045C221.516 2.62879 222.368 1.84754 223.447 1.3267C224.527 0.805869 225.753 0.545453 227.126 0.545453C228.054 0.545453 228.902 0.616476 229.669 0.758523C230.446 0.900568 231.023 1.02841 231.402 1.14205L230.322 5.6875C230.086 5.61174 229.792 5.54072 229.442 5.47443C229.101 5.40814 228.75 5.375 228.391 5.375C227.5 5.375 226.88 5.58333 226.53 6C226.179 6.4072 226.004 6.98011 226.004 7.71875V31H219.967ZM243.124 31.4261C240.918 31.4261 239.01 30.9574 237.4 30.0199C235.799 29.0729 234.564 27.7566 233.692 26.071C232.821 24.3759 232.386 22.411 232.386 20.1761C232.386 17.9223 232.821 15.9527 233.692 14.267C234.564 12.572 235.799 11.2557 237.4 10.3182C239.01 9.37121 240.918 8.89773 243.124 8.89773C245.331 8.89773 247.234 9.37121 248.835 10.3182C250.444 11.2557 251.685 12.572 252.556 14.267C253.427 15.9527 253.863 17.9223 253.863 20.1761C253.863 22.411 253.427 24.3759 252.556 26.071C251.685 27.7566 250.444 29.0729 248.835 30.0199C247.234 30.9574 245.331 31.4261 243.124 31.4261ZM243.153 26.7386C244.156 26.7386 244.995 26.4545 245.667 25.8864C246.339 25.3087 246.846 24.5227 247.187 23.5284C247.537 22.5341 247.712 21.4025 247.712 20.1335C247.712 18.8646 247.537 17.733 247.187 16.7386C246.846 15.7443 246.339 14.9583 245.667 14.3807C244.995 13.803 244.156 13.5142 243.153 13.5142C242.139 13.5142 241.287 13.803 240.596 14.3807C239.914 14.9583 239.398 15.7443 239.048 16.7386C238.707 17.733 238.536 18.8646 238.536 20.1335C238.536 21.4025 238.707 22.5341 239.048 23.5284C239.398 24.5227 239.914 25.3087 240.596 25.8864C241.287 26.4545 242.139 26.7386 243.153 26.7386ZM263.849 1.90909V31H257.798V1.90909H263.849ZM268.696 31V9.18182H274.747V31H268.696ZM271.736 6.36932C270.836 6.36932 270.064 6.07102 269.42 5.47443C268.786 4.86837 268.469 4.14394 268.469 3.30114C268.469 2.4678 268.786 1.75284 269.42 1.15625C270.064 0.550188 270.836 0.247158 271.736 0.247158C272.635 0.247158 273.402 0.550188 274.037 1.15625C274.681 1.75284 275.003 2.4678 275.003 3.30114C275.003 4.14394 274.681 4.86837 274.037 5.47443C273.402 6.07102 272.635 6.36932 271.736 6.36932ZM289.452 31.4261C287.246 31.4261 285.338 30.9574 283.728 30.0199C282.128 29.0729 280.892 27.7566 280.021 26.071C279.149 24.3759 278.714 22.411 278.714 20.1761C278.714 17.9223 279.149 15.9527 280.021 14.267C280.892 12.572 282.128 11.2557 283.728 10.3182C285.338 9.37121 287.246 8.89773 289.452 8.89773C291.659 8.89773 293.562 9.37121 295.163 10.3182C296.772 11.2557 298.013 12.572 298.884 14.267C299.755 15.9527 300.191 17.9223 300.191 20.1761C300.191 22.411 299.755 24.3759 298.884 26.071C298.013 27.7566 296.772 29.0729 295.163 30.0199C293.562 30.9574 291.659 31.4261 289.452 31.4261ZM289.481 26.7386C290.485 26.7386 291.323 26.4545 291.995 25.8864C292.667 25.3087 293.174 24.5227 293.515 23.5284C293.865 22.5341 294.04 21.4025 294.04 20.1335C294.04 18.8646 293.865 17.733 293.515 16.7386C293.174 15.7443 292.667 14.9583 291.995 14.3807C291.323 13.803 290.485 13.5142 289.481 13.5142C288.468 13.5142 287.615 13.803 286.924 14.3807C286.242 14.9583 285.726 15.7443 285.376 16.7386C285.035 17.733 284.864 18.8646 284.864 20.1335C284.864 21.4025 285.035 22.5341 285.376 23.5284C285.726 24.5227 286.242 25.3087 286.924 25.8864C287.615 26.4545 288.468 26.7386 289.481 26.7386Z" fill="#2196F3"/>
</svg>
